Coordinates
version=1
nRows=15
nColumns=63
inDegrees=yes

Units are S.I. units (second, meters, Newtons, ...)
If the header above contains a line with 'inDegrees', this indicates whether rotational values are in degrees (yes) or radians (no).

endheader
time	pelvis_tilt	pelvis_list	pelvis_rotation	pelvis_tx	pelvis_ty	pelvis_tz	hip_flexion_r	hip_adduction_r	hip_rotation_r	knee_angle_r	knee_angle_r_beta	ankle_angle_r	subtalar_angle_r	mtp_angle_r	hip_flexion_l	hip_adduction_l	hip_rotation_l	knee_angle_l	knee_angle_l_beta	ankle_angle_l	subtalar_angle_l	mtp_angle_l	L5_S1_Flex_Ext	L5_S1_Lat_Bending	L5_S1_axial_rotation	L4_L5_Flex_Ext	L4_L5_Lat_Bending	L4_L5_axial_rotation	L3_L4_Flex_Ext	L3_L4_Lat_Bending	L3_L4_axial_rotation	L2_L3_Flex_Ext	L2_L3_Lat_Bending	L2_L3_axial_rotation	L1_L2_Flex_Ext	L1_L2_Lat_Bending	L1_L2_axial_rotation	L1_T12_Flex_Ext	L1_T12_Lat_Bending	L1_T12_axial_rotation	Abs_r3	Abs_r2	Abs_r1	Abs_t1	Abs_t2	neck_flexion	neck_bending	neck_rotation	arm_flex_r	arm_add_r	arm_rot_r	elbow_flex_r	pro_sup_r	wrist_flex_r	wrist_dev_r	arm_flex_l	arm_add_l	arm_rot_l	elbow_flex_l	pro_sup_l	wrist_flex_l	wrist_dev_l
0.000000	-3.001802	-5.072052	90.969479	0.250247	0.717810	0.739345	7.052223	-4.056807	-5.877860	5.261730	0.091835	17.447596	11.735477	0.000000	5.925884	1.566650	-10.018267	4.457523	0.077798	16.714308	10.580961	0.000000	0.211403	-0.293238	2.344304	0.392597	-0.390007	2.490823	0.347315	-0.712980	2.490823	0.241613	-0.712980	2.051266	0.196309	-0.597972	1.904747	0.120796	-0.454226	1.758228	1.510033	-3.317173	13.038317	0.000000	0.000000	27.962760	-3.187184	-9.423123	0.445115	-11.150945	26.287385	61.850330	87.516071	12.026809	4.571519	22.448429	-11.681813	67.770194	54.238866	47.661767	7.103381	8.218676
0.016667	-2.933529	-4.964913	90.242341	0.250528	0.717289	0.737960	6.890236	-3.935537	-4.412308	5.326449	0.092964	17.304437	10.999921	0.000000	5.453152	1.555625	-10.193701	4.138190	0.072225	16.950704	9.712426	0.000000	0.215659	-0.274539	2.287848	0.400500	-0.365137	2.430838	0.354306	-0.667515	2.430838	0.246476	-0.667515	2.001867	0.200261	-0.559841	1.858876	0.123227	-0.425262	1.715886	1.540428	-3.105645	12.724322	0.000000	0.000000	27.983790	-2.197391	-7.821474	0.432742	-11.362226	27.094500	62.357327	87.206446	12.879712	5.818655	21.192388	-12.689264	66.138853	55.467584	49.050084	7.482524	7.724181
0.033333	-2.884191	-4.866064	89.638031	0.250813	0.716882	0.736817	6.742738	-3.837612	-3.090038	5.369091	0.093708	17.205790	10.301903	0.000000	5.060112	1.552688	-10.365027	3.876083	0.067650	17.140566	9.024480	0.000000	0.218006	-0.260846	2.251604	0.404859	-0.346925	2.392329	0.358162	-0.634221	2.392329	0.249159	-0.634221	1.970153	0.202441	-0.531918	1.829428	0.124569	-0.404051	1.688703	1.557197	-2.950744	12.522745	0.000000	0.000000	27.997024	-1.412939	-6.583876	0.362199	-11.523998	27.643401	62.813514	86.963400	13.581841	6.868269	20.164597	-13.544943	64.829863	56.537875	50.345516	7.786379	7.177469
0.050000	-2.851332	-4.775179	89.147439	0.251097	0.716578	0.735897	6.608825	-3.760405	-1.903873	5.391924	0.094107	17.145805	9.640103	0.000000	4.740167	1.556474	-10.528839	3.665683	0.063978	17.287941	8.499086	0.000000	0.218638	-0.251589	2.233282	0.406032	-0.334614	2.372862	0.359200	-0.611714	2.372862	0.249881	-0.611714	1.954121	0.203027	-0.513041	1.814541	0.124930	-0.389712	1.674961	1.561707	-2.846026	12.420842	0.000000	0.000000	28.003291	-0.814637	-5.674829	0.241019	-11.640931	27.962898	63.218724	86.768676	14.141656	7.739841	19.346631	-14.258353	63.823179	57.456692	51.543661	8.010215	6.582277
0.066667	-2.832495	-4.691933	88.761455	0.251377	0.716366	0.735178	6.487591	-3.701285	-0.846637	5.397216	0.094199	17.118633	9.013204	0.000000	4.486723	1.565616	-10.681733	3.501467	0.061112	17.396877	8.118206	0.000000	0.217744	-0.246199	2.230589	0.404373	-0.327444	2.370001	0.357732	-0.598607	2.370001	0.248860	-0.598607	1.951766	0.202197	-0.502048	1.812354	0.124419	-0.381362	1.672942	1.555324	-2.785048	12.405868	0.000000	0.000000	28.003420	-0.383300	-5.058830	0.076739	-11.717692	28.081802	63.572788	86.604017	14.567618	8.452853	18.720065	-14.839000	63.098758	58.230986	52.640115	8.149299	5.942346
0.083333	-2.825224	-4.616000	88.470967	0.251649	0.716238	0.734642	6.378132	-3.657623	0.088849	5.387235	0.094025	17.118423	8.419886	0.000000	4.293184	1.578748	-10.820305	3.377917	0.058956	17.471419	7.863801	0.000000	0.215517	-0.244105	2.241235	0.400237	-0.324660	2.381313	0.354073	-0.593517	2.381313	0.246314	-0.593517	1.961081	0.200129	-0.497779	1.821004	0.123146	-0.378119	1.680926	1.539417	-2.761364	12.465078	0.000000	0.000000	27.998241	-0.099738	-4.700376	-0.123110	-11.758950	28.028922	63.875538	86.451164	14.868186	9.026787	18.266471	-15.296389	62.636554	58.867709	53.630476	8.198900	5.261412
0.100000	-2.827063	-4.547054	88.266865	0.251909	0.716184	0.734268	6.279543	-3.626789	0.909760	5.364249	0.093624	17.139326	7.858831	0.000000	4.152955	1.594504	-10.941149	3.289511	0.057413	17.515615	7.717833	0.000000	0.212148	-0.244739	2.262928	0.393980	-0.325502	2.404361	0.348538	-0.595057	2.404361	0.242464	-0.595057	1.980062	0.197001	-0.499071	1.838629	0.121221	-0.379100	1.697196	1.515352	-2.768531	12.585727	0.000000	0.000000	27.988583	0.055236	-4.563966	-0.350991	-11.769375	27.833069	64.126806	86.291859	15.051822	9.481123	17.967426	-15.640026	62.416522	59.373813	54.510341	8.154288	4.543215
0.116667	-2.835556	-4.484770	88.140040	0.252153	0.716193	0.734036	6.190919	-3.606155	1.623274	5.330525	0.093035	17.175492	7.328719	0.000000	4.059440	1.611518	-11.040862	3.230728	0.056387	17.533512	7.662265	0.000000	0.207828	-0.247530	2.293376	0.385958	-0.329215	2.436712	0.341441	-0.601844	2.436712	0.237527	-0.601844	2.006704	0.192989	-0.504763	1.863368	0.118753	-0.383424	1.720032	1.484496	-2.800106	12.755069	0.000000	0.000000	27.975275	0.100811	-4.614096	-0.599371	-11.753635	27.523052	64.326424	86.107845	15.126985	9.835343	17.804503	-15.879414	62.418619	59.756248	55.275308	8.010729	3.791494
0.133333	-2.848245	-4.428822	88.081380	0.252377	0.716256	0.733927	6.111354	-3.593090	2.236568	5.288332	0.092299	17.221072	6.828233	0.000000	4.006045	1.628426	-11.116037	3.196049	0.055782	17.529155	7.679058	0.000000	0.202749	-0.251909	2.330288	0.376525	-0.335039	2.475930	0.333097	-0.612491	2.475930	0.231722	-0.612491	2.039002	0.188273	-0.513693	1.893359	0.115851	-0.390207	1.747716	1.448217	-2.849644	12.960360	0.000000	0.000000	27.959146	0.056175	-4.815265	-0.860716	-11.716400	27.127680	64.474224	85.880863	15.102136	10.108929	17.759277	-16.024060	62.622799	60.021967	55.920974	7.763492	3.009986
0.150000	-2.862676	-4.378885	88.081774	0.252577	0.716363	0.733920	6.039945	-3.584964	2.756819	5.239937	0.091454	17.270216	6.356053	0.000000	3.986173	1.643859	-11.163271	3.179952	0.055501	17.506593	7.750173	0.000000	0.197102	-0.257306	2.371371	0.366038	-0.342218	2.519582	0.323819	-0.625615	2.519582	0.225268	-0.625615	2.074950	0.183029	-0.524699	1.926739	0.112624	-0.398568	1.778528	1.407881	-2.910702	13.188855	0.000000	0.000000	27.941026	-0.059485	-5.131970	-1.127490	-11.662338	26.675765	64.570038	85.592655	14.985735	10.321361	17.813322	-16.083468	63.009019	60.177922	56.442937	7.407847	2.202431
0.166667	-2.876392	-4.334632	88.132113	0.252750	0.716505	0.733996	5.975785	-3.579149	3.191203	5.187609	0.090541	17.317074	5.910861	0.000000	3.993229	1.656453	-11.179159	3.176917	0.055448	17.469872	7.857573	0.000000	0.191079	-0.263153	2.414335	0.354852	-0.349993	2.565231	0.313923	-0.639829	2.565231	0.218384	-0.639829	2.112543	0.177436	-0.536621	1.961647	0.109182	-0.407623	1.810751	1.364855	-2.976835	13.427808	0.000000	0.000000	27.921743	-0.226981	-5.528709	-1.392161	-11.596117	26.196116	64.613697	85.224963	14.786242	10.492121	17.948213	-16.067144	63.557233	60.231065	56.836792	6.939060	1.372568
0.183333	-2.872105	-4.300391	88.248389	0.252827	0.716679	0.734120	5.919056	-3.562579	3.447137	5.134574	0.089615	17.357728	5.562301	0.000000	4.022523	1.658446	-11.039299	3.166448	0.055265	17.399922	7.837575	0.000000	0.186230	-0.266485	2.439977	0.345848	-0.354425	2.592475	0.305957	-0.647932	2.592475	0.212842	-0.647932	2.134980	0.172933	-0.543416	1.982481	0.106412	-0.412785	1.829983	1.330222	-3.014533	13.570419	0.000000	0.000000	27.901958	-0.412899	-5.922237	-1.610731	-11.533610	25.813020	64.561274	84.834106	14.605781	10.597412	18.126560	-16.004311	64.289399	60.178068	57.210415	6.284083	0.268200
0.200000	-2.863834	-4.275750	88.382399	0.252857	0.716852	0.734285	5.878794	-3.543682	3.686648	5.099984	0.089012	17.359184	5.176069	0.000000	4.059630	1.656655	-10.919772	3.137208	0.054755	17.338085	7.895898	0.000000	0.181658	-0.268514	2.467533	0.337357	-0.357123	2.621753	0.298446	-0.652864	2.621753	0.207617	-0.652864	2.159091	0.168688	-0.547553	2.004870	0.103799	-0.415928	1.850649	1.297564	-3.037482	13.723676	0.000000	0.000000	27.883977	-0.607531	-6.277211	-1.838067	-11.467750	25.425767	64.486358	84.236233	14.292024	10.833819	18.354310	-15.863087	65.202340	60.005113	57.303741	5.428481	-0.847501
0.216667	-2.848599	-4.247554	88.518649	0.252882	0.717014	0.734470	5.831554	-3.516663	3.935523	5.063185	0.088369	17.316614	4.753138	0.000000	4.100934	1.644767	-10.788422	3.122768	0.054503	17.310037	7.950634	0.000000	0.175558	-0.269422	2.492933	0.326029	-0.358331	2.648742	0.288424	-0.655072	2.648742	0.200645	-0.655072	2.181317	0.163023	-0.549405	2.025508	0.100314	-0.417334	1.869700	1.253992	-3.047751	13.864948	0.000000	0.000000	27.871146	-0.754348	-6.563892	-2.039716	-11.407091	25.113615	64.368878	83.364134	13.870827	11.135684	18.583215	-15.677734	66.163996	59.773555	57.140027	4.405909	-1.812499
0.233333	-2.818735	-4.219982	88.680164	0.252848	0.717162	0.734657	5.778121	-3.484244	4.026395	5.026115	0.087722	17.261699	4.485773	0.000000	4.144628	1.621528	-10.551943	3.114395	0.054356	17.292780	7.907665	0.000000	0.169168	-0.268652	2.515261	0.314161	-0.357307	2.672465	0.277925	-0.653200	2.672465	0.193342	-0.653200	2.200853	0.157089	-0.547834	2.043649	0.096662	-0.416141	1.886446	1.208347	-3.039041	13.989126	0.000000	0.000000	27.859576	-0.923291	-6.879066	-2.237970	-11.353594	24.844436	64.209268	82.402185	13.367847	11.378564	18.835678	-15.442791	67.217312	59.454105	56.728484	3.310969	-2.657141
